REM DIRINDEX 1\2,1\3
REM DIRNAME cjc052,folder01,folder02
TITLE ""
FILE "Disk2Track32.mp3" MP3
  TRACK 01 AUDIO
    TITLE "2:cjc052_0742"
    INDEX 01 00:00:00
  TRACK 02 AUDIO
    TITLE "2:cjc052_0743"
    INDEX 01 00:06:14
  TRACK 03 AUDIO
    TITLE "0:"
    INDEX 01 00:16:38
